<mxfile host="app.diagrams.net" agent="Mozilla/5.0 (Windows NT 10.0; Win64; x64) AppleWebKit/537.36 (KHTML, like Gecko) Chrome/123.0.0.0 Safari/537.36" version="24.7.15">
  <diagram name="第 1 页" id="IbL7ijVwDvZSqayovwY6">
    <mxGraphModel dx="1050" dy="565" grid="1" gridSize="10" guides="1" tooltips="1" connect="1" arrows="1" fold="1" page="1" pageScale="1" pageWidth="827" pageHeight="1169" math="0" shadow="0">
      <root>
        <mxCell id="0" />
        <mxCell id="1" parent="0" />
        <mxCell id="m7wdFhXXytyFAqHJrLjw-1" value="Environmental&lt;div&gt;Awareness&lt;/div&gt;" style="shadow=0;dashed=0;html=1;strokeColor=none;shape=mxgraph.mscae.general.continuous_cycle;fillColor=#ffffff;rounded=0;comic=0;fontFamily=Verdana;fontSize=14;fontColor=#FFFFFF;verticalAlign=top;labelPosition=center;verticalLabelPosition=bottom;align=center;" vertex="1" parent="1">
          <mxGeometry x="561.5" y="235" width="48" height="50" as="geometry" />
        </mxCell>
        <mxCell id="m7wdFhXXytyFAqHJrLjw-2" value="Finance" style="shape=mxgraph.signs.travel.euro;html=1;fillColor=#ffffff;strokeColor=none;verticalLabelPosition=bottom;verticalAlign=top;align=center;rounded=0;shadow=0;dashed=0;comic=0;fontFamily=Verdana;fontSize=14;fontColor=#FFFFFF;" vertex="1" parent="1">
          <mxGeometry x="648.5" y="289" width="45" height="51" as="geometry" />
        </mxCell>
        <mxCell id="m7wdFhXXytyFAqHJrLjw-3" style="edgeStyle=orthogonalEdgeStyle;rounded=0;orthogonalLoop=1;jettySize=auto;html=1;exitX=1;exitY=0.25;exitDx=0;exitDy=0;entryX=0;entryY=0.25;entryDx=0;entryDy=0;" edge="1" parent="1">
          <mxGeometry relative="1" as="geometry">
            <mxPoint x="323" y="271" as="sourcePoint" />
            <mxPoint x="561.5" y="271" as="targetPoint" />
          </mxGeometry>
        </mxCell>
        <mxCell id="m7wdFhXXytyFAqHJrLjw-4" value="请求表权限" style="edgeLabel;html=1;align=center;verticalAlign=middle;resizable=0;points=[];" vertex="1" connectable="0" parent="m7wdFhXXytyFAqHJrLjw-3">
          <mxGeometry x="-0.1899" y="1" relative="1" as="geometry">
            <mxPoint x="22" as="offset" />
          </mxGeometry>
        </mxCell>
        <mxCell id="m7wdFhXXytyFAqHJrLjw-5" style="edgeStyle=orthogonalEdgeStyle;rounded=0;orthogonalLoop=1;jettySize=auto;html=1;exitX=1;exitY=0.75;exitDx=0;exitDy=0;entryX=0;entryY=0.75;entryDx=0;entryDy=0;strokeColor=#00FF00;" edge="1" parent="1">
          <mxGeometry relative="1" as="geometry">
            <mxPoint x="323" y="312" as="sourcePoint" />
            <mxPoint x="561.5" y="312" as="targetPoint" />
          </mxGeometry>
        </mxCell>
        <mxCell id="m7wdFhXXytyFAqHJrLjw-6" value="响应数据" style="edgeLabel;html=1;align=center;verticalAlign=middle;resizable=0;points=[];" vertex="1" connectable="0" parent="m7wdFhXXytyFAqHJrLjw-5">
          <mxGeometry x="-0.0516" y="-1" relative="1" as="geometry">
            <mxPoint as="offset" />
          </mxGeometry>
        </mxCell>
        <mxCell id="m7wdFhXXytyFAqHJrLjw-7" value="DB-GPT" style="rounded=0;whiteSpace=wrap;html=1;" vertex="1" parent="1">
          <mxGeometry x="200" y="260" width="123" height="60" as="geometry" />
        </mxCell>
        <mxCell id="m7wdFhXXytyFAqHJrLjw-8" style="edgeStyle=orthogonalEdgeStyle;rounded=0;orthogonalLoop=1;jettySize=auto;html=1;exitX=0;exitY=0.75;exitDx=0;exitDy=0;entryX=1;entryY=0.75;entryDx=0;entryDy=0;fillColor=#006600;strokeColor=#0000FF;" edge="1" parent="1">
          <mxGeometry relative="1" as="geometry">
            <mxPoint x="561.5" y="292" as="sourcePoint" />
            <mxPoint x="323" y="292" as="targetPoint" />
          </mxGeometry>
        </mxCell>
        <mxCell id="m7wdFhXXytyFAqHJrLjw-9" value="根据用户响应表权限控制逻辑" style="edgeLabel;html=1;align=center;verticalAlign=middle;resizable=0;points=[];" vertex="1" connectable="0" parent="m7wdFhXXytyFAqHJrLjw-8">
          <mxGeometry x="0.3188" y="1" relative="1" as="geometry">
            <mxPoint x="51" as="offset" />
          </mxGeometry>
        </mxCell>
        <mxCell id="m7wdFhXXytyFAqHJrLjw-10" value="业务系统" style="rounded=0;whiteSpace=wrap;html=1;" vertex="1" parent="1">
          <mxGeometry x="561.5" y="260" width="120" height="60" as="geometry" />
        </mxCell>
        <mxCell id="m7wdFhXXytyFAqHJrLjw-11" style="edgeStyle=orthogonalEdgeStyle;rounded=0;orthogonalLoop=1;jettySize=auto;html=1;exitX=0.5;exitY=1;exitDx=0;exitDy=0;" edge="1" parent="1" source="m7wdFhXXytyFAqHJrLjw-7" target="m7wdFhXXytyFAqHJrLjw-7">
          <mxGeometry relative="1" as="geometry" />
        </mxCell>
        <mxCell id="m7wdFhXXytyFAqHJrLjw-12" value="业务数据库" style="shape=cylinder3;whiteSpace=wrap;html=1;boundedLbl=1;backgroundOutline=1;size=15;" vertex="1" parent="1">
          <mxGeometry x="221.5" y="90" width="60" height="80" as="geometry" />
        </mxCell>
        <mxCell id="m7wdFhXXytyFAqHJrLjw-13" value="供应链一站式问答" style="shape=umlActor;verticalLabelPosition=bottom;verticalAlign=top;html=1;outlineConnect=0;" vertex="1" parent="1">
          <mxGeometry x="606.5" y="374" width="30" height="60" as="geometry" />
        </mxCell>
        <mxCell id="m7wdFhXXytyFAqHJrLjw-14" style="edgeStyle=orthogonalEdgeStyle;rounded=0;orthogonalLoop=1;jettySize=auto;html=1;exitX=0.5;exitY=1;exitDx=0;exitDy=0;entryX=0.5;entryY=0;entryDx=0;entryDy=0;entryPerimeter=0;" edge="1" parent="1" source="m7wdFhXXytyFAqHJrLjw-10" target="m7wdFhXXytyFAqHJrLjw-13">
          <mxGeometry relative="1" as="geometry" />
        </mxCell>
        <mxCell id="m7wdFhXXytyFAqHJrLjw-15" style="edgeStyle=orthogonalEdgeStyle;rounded=0;orthogonalLoop=1;jettySize=auto;html=1;exitX=0.25;exitY=0;exitDx=0;exitDy=0;entryX=0.145;entryY=1;entryDx=0;entryDy=-4.35;entryPerimeter=0;strokeColor=#0000FF;" edge="1" parent="1" source="m7wdFhXXytyFAqHJrLjw-7" target="m7wdFhXXytyFAqHJrLjw-12">
          <mxGeometry relative="1" as="geometry" />
        </mxCell>
        <mxCell id="m7wdFhXXytyFAqHJrLjw-16" value="SQL" style="edgeLabel;html=1;align=center;verticalAlign=middle;resizable=0;points=[];" vertex="1" connectable="0" parent="m7wdFhXXytyFAqHJrLjw-15">
          <mxGeometry x="0.0532" y="3" relative="1" as="geometry">
            <mxPoint as="offset" />
          </mxGeometry>
        </mxCell>
        <mxCell id="m7wdFhXXytyFAqHJrLjw-17" style="edgeStyle=orthogonalEdgeStyle;rounded=0;orthogonalLoop=1;jettySize=auto;html=1;exitX=0.855;exitY=1;exitDx=0;exitDy=-4.35;exitPerimeter=0;entryX=0.598;entryY=0;entryDx=0;entryDy=0;entryPerimeter=0;strokeColor=#00FF00;" edge="1" parent="1" source="m7wdFhXXytyFAqHJrLjw-12" target="m7wdFhXXytyFAqHJrLjw-7">
          <mxGeometry relative="1" as="geometry" />
        </mxCell>
        <mxCell id="m7wdFhXXytyFAqHJrLjw-18" value="权限范围数据" style="edgeLabel;html=1;align=center;verticalAlign=middle;resizable=0;points=[];rotation=90;" vertex="1" connectable="0" parent="m7wdFhXXytyFAqHJrLjw-17">
          <mxGeometry x="0.0541" y="2" relative="1" as="geometry">
            <mxPoint x="-1" y="-3" as="offset" />
          </mxGeometry>
        </mxCell>
      </root>
    </mxGraphModel>
  </diagram>
</mxfile>
